<svg xmlns="http://www.w3.org/2000/svg" viewBox="0 0 709 709"><defs><style>.cls-1{fill:#fff;}.cls-2{fill:#3497db;}</style></defs><title>Asset 1</title><g id="Layer_2" data-name="Layer 2"><g id="Layer_1-2" data-name="Layer 1"><circle class="cls-1" cx="354.5" cy="354.5" r="354.5"/><circle class="cls-2" cx="354.5" cy="354.5" r="315.5"/><path class="cls-1" d="M255.9,443.58l.59-.34c.64-7.05,2.08-16.12,3.31-23.5l13.42-73.32,31.21-18L283.2,418.79,394.37,466.5l-31.51,18.19-88.61-39.93-4.75,22.38,30.94,53.58-25.62,14.79-120.7-209,25.62-14.79Z"/><path class="cls-1" d="M307.24,378.18c-8.5-14.73-15.76-26.63-23.44-37.9l22.67-13.09,14.44,22.29.88-.51c.13-18.13,6.07-38.45,29.62-52.05,19.44-11.22,41-7.94,56.83,5.28l.59-.34A67.8,67.8,0,0,1,414,274.13c4.8-11.41,12.18-20.39,25.73-28.21,18.84-10.88,54-14.66,82.52,34.81l48.44,83.92-25.32,14.62-46.58-80.68c-15.81-27.39-35.34-38.09-56.24-26-14.73,8.5-19.92,26-17,41.23A49.66,49.66,0,0,0,431,328l50.83,88-25.32,14.62-49.3-85.39c-13.09-22.68-32.62-33.39-52.35-22-16.19,9.34-20.49,29.1-17.13,44.44a41.16,41.16,0,0,0,5.25,13.85l49.64,86-25.33,14.62Z"/></g></g></svg>