<?xml version="1.0" encoding="utf-8"?>
<!-- Generator: Adobe Illustrator 23.0.4, SVG Export Plug-In . SVG Version: 6.00 Build 0)  -->
<svg version="1.1" id="Layer_1" xmlns="http://www.w3.org/2000/svg" xmlns:xlink="http://www.w3.org/1999/xlink" x="0px" y="0px"
	 viewBox="0 0 800 800" style="enable-background:new 0 0 800 800;" xml:space="preserve">
<style type="text/css">
	.st0{fill:#FFFFFF;}
	.st1{fill:#3497DB;}
</style>
<g>
	<circle class="st0" cx="400" cy="400" r="400"/>
</g>
<g>
	<circle class="st1" cx="400" cy="400" r="355.99"/>
</g>
<g>
	<g>
		<path class="st0" d="M288.75,500.51l0.66-0.38c0.73-7.95,2.35-18.19,3.74-26.52l15.14-82.72l35.22-20.33l-23.96,101.99
			l125.43,53.83l-35.55,20.53l-99.98-45.05l-5.36,25.24L339,587.56l-28.91,16.69L173.91,368.36l28.9-16.69L288.75,500.51z"/>
	</g>
	<g>
		<path class="st0" d="M346.68,426.71c-9.59-16.61-17.79-30.04-26.46-42.76l25.58-14.77l16.29,25.15l1-0.58
			c0.15-20.46,6.85-43.38,33.43-58.73c21.93-12.66,46.21-8.96,64.12,5.95l0.67-0.38c-0.2-11.85,2.09-22.47,5.86-31.29
			c5.41-12.87,13.74-23,29.03-31.82c21.26-12.28,60.88-16.55,93.11,39.27l54.67,94.69l-28.57,16.5l-52.56-91.03
			c-17.84-30.9-39.88-42.98-63.47-29.36c-16.61,9.59-22.47,29.36-19.21,46.53c0.97,4.75,3.05,10.65,6.11,15.96l57.35,99.34
			l-28.57,16.5l-55.63-96.35c-14.77-25.58-36.81-37.67-59.07-24.81c-18.27,10.55-23.12,32.84-19.33,50.14
			c0.83,5.28,3.05,10.64,5.92,15.63l56.01,97.01l-28.57,16.5L346.68,426.71z"/>
	</g>
</g>
</svg>
