<?xml version="1.0" encoding="utf-8"?>
<!-- Generator: Adobe Illustrator 23.0.4, SVG Export Plug-In . SVG Version: 6.00 Build 0)  -->
<svg version="1.1" id="Layer_1" xmlns="http://www.w3.org/2000/svg" xmlns:xlink="http://www.w3.org/1999/xlink" x="0px" y="0px"
	 viewBox="0 0 800 800" style="enable-background:new 0 0 800 800;" xml:space="preserve">
<style type="text/css">
	.st0{fill:#EBEFF0;}
	.st1{fill:#292D48;}
</style>
<g>
	<circle class="st0" cx="400" cy="400" r="400"/>
</g>
<g>
	<circle class="st1" cx="400" cy="400" r="355.99"/>
</g>
<g>
	<g>
		<path class="st0" d="M264.71,492.21l0.8-0.46c0.87-9.54,2.82-21.83,4.48-31.83l18.17-99.27l42.26-24.4l-28.75,122.38l150.52,64.6
			l-42.66,24.63l-119.98-54.05l-6.43,30.29l41.89,72.56l-34.69,20.03L126.9,333.63l34.68-20.03L264.71,492.21z"/>
	</g>
	<g>
		<path class="st0" d="M334.23,403.66c-11.51-19.93-21.35-36.05-31.75-51.31l30.7-17.72l19.55,30.18l1.2-0.69
			c0.18-24.55,8.22-52.06,40.11-70.47c26.31-15.19,55.46-10.75,76.95,7.14l0.8-0.46c-0.24-14.22,2.51-26.96,7.03-37.55
			c6.5-15.45,16.49-27.6,34.83-38.18c25.52-14.73,73.06-19.85,111.73,47.12l65.6,113.63l-34.29,19.79l-63.07-109.24
			c-21.41-37.08-47.85-51.58-76.16-35.23c-19.94,11.51-26.97,35.24-23.05,55.83c1.17,5.71,3.65,12.77,7.34,19.15l68.83,119.21
			l-34.29,19.8l-66.75-115.62c-17.72-30.7-44.17-45.2-70.88-29.78c-21.93,12.66-27.75,39.41-23.2,60.17
			c1,6.33,3.65,12.77,7.11,18.75l67.21,116.42l-34.29,19.8L334.23,403.66z"/>
	</g>
</g>
</svg>
